<svg width="20" height="20" viewBox="0 0 20 20" fill="none" xmlns="http://www.w3.org/2000/svg">
<path d="M9.59961 0C10.2624 0 10.7998 0.537453 10.7998 1.2002V8.40039H18C18.6626 8.40039 19.2 8.93705 19.2002 9.59961C19.2002 10.2624 18.6627 10.7998 18 10.7998H10.7998V18C10.7998 18.6627 10.2624 19.2002 9.59961 19.2002C8.93705 19.2 8.40039 18.6626 8.40039 18V10.7998H1.2002C0.537453 10.7998 -2.89694e-08 10.2624 0 9.59961C0.000211164 8.93705 0.537584 8.40039 1.2002 8.40039H8.40039V1.2002C8.40039 0.537584 8.93705 0.000211395 9.59961 0Z" fill="white"/>
</svg>
