<svg width="30" height="30" viewBox="0 0 30 30" fill="none" xmlns="http://www.w3.org/2000/svg">
<path d="M7.5 21.9168C7.5 20.6349 8.00922 19.4056 8.91565 18.4991C9.82208 17.5927 11.0515 17.0835 12.3333 17.0835H22C23.2819 17.0835 24.5113 17.5927 25.4177 18.4991C26.3241 19.4056 26.8333 20.6349 26.8333 21.9168C26.8333 22.5578 26.5787 23.1725 26.1255 23.6257C25.6723 24.0789 25.0576 24.3335 24.4167 24.3335H9.91667C9.27573 24.3335 8.66104 24.0789 8.20783 23.6257C7.75461 23.1725 7.5 22.5578 7.5 21.9168Z" stroke="white" stroke-width="2" stroke-linejoin="round"/>
<path d="M17.1667 12.25C19.1688 12.25 20.7917 10.627 20.7917 8.625C20.7917 6.62297 19.1688 5 17.1667 5C15.1647 5 13.5417 6.62297 13.5417 8.625C13.5417 10.627 15.1647 12.25 17.1667 12.25Z" stroke="white" stroke-width="2"/>
</svg>
